<?xml version="1.0" encoding="utf-8"?>
<!-- Generator: Adobe Illustrator 23.0.3, SVG Export Plug-In . SVG Version: 6.00 Build 0)  -->
<svg version="1.1" id="Layer_1" xmlns="http://www.w3.org/2000/svg" xmlns:xlink="http://www.w3.org/1999/xlink" x="0px" y="0px"
	 viewBox="0 0 512 512" style="enable-background:new 0 0 512 512;" xml:space="preserve">
<style type="text/css">
	.st0{fill:#808080;}
</style>
<title>document-bar-chart-outline</title>
<path class="st0" d="M307.3,0H115.2c-35.3,0-64,28.7-64,64v384c0,35.3,28.7,64,64,64h281.6c35.3,0,64-28.7,64-64V153.6L307.3,0z
	 M411.5,140.8h-53.1c-21.2,0-38.4-17.2-38.4-38.4V49.1L411.5,140.8z M435.2,448c0,21.2-17.2,38.4-38.4,38.4H115.2
	c-21.2,0-38.4-17.2-38.4-38.4V64c0-21.2,17.2-38.4,38.4-38.4h179.2v76.8c0,35.3,28.7,64,64,64h76.8V448z M319.8,217.8
	c-14,0-25.4,11.4-25.4,25.4v13h-25.8c-14,0-25.4,11.4-25.4,25.4v0.2h-25.6v-38.6c0-14-11.4-25.4-25.4-25.4h-26
	c-14,0-25.4,11.4-25.4,25.4v128h-25.6v25.6h281.6v-25.6h-25.6v-128c0-14-11.4-25.4-25.4-25.4L319.8,217.8z M294.4,281.8v89.4h-25.6
	v-64c0-0.5-0.1-1-0.1-1.5l0-24L294.4,281.8z M243.2,307.4v63.8h-25.6v-63.8H243.2z M166.2,243.4H192l0.1,62.8c0,0.3-0.1,0.6-0.1,1
	v64h-25.6L166.2,243.4z M320,371.2v-89.6c0-0.5-0.1-0.9-0.1-1.4l-0.1-36.8h25.8l0.2,127.8H320z"/>
</svg>
